<svg xmlns="http://www.w3.org/2000/svg" width="51" height="50" viewBox="0 0 51 50">
  <g id="グループ_3673" data-name="グループ 3673" transform="translate(-324 -762)">
    <rect id="長方形_4" data-name="長方形 4" width="51" height="50" transform="translate(324 762)" fill="#197174"/>
    <g id="グループ_3663" data-name="グループ 3663" transform="translate(-649.424 18778.586)">
      <g id="グループ_5" data-name="グループ 5" transform="translate(649 -29797)">
        <path id="パス_59" data-name="パス 59" d="M338.855,11816.55c-.048,0-.071-.059-.071-.177,0-.1.023-.153.071-.153h.176a1.385,1.385,0,0,0,.779-.172.643.643,0,0,0,.247-.571v-6.417a.656.656,0,0,0-.23-.595,1.272,1.272,0,0,0-.678-.147q-.177,0-.294.012a2.439,2.439,0,0,0-1.1.395,3.411,3.411,0,0,0-1,.879.189.189,0,0,1-.13.082.183.183,0,0,1-.082-.022c-.079-.032-.119-.067-.119-.106l.013-.059.495-1.321a.274.274,0,0,1,.283-.188h6.616a.274.274,0,0,1,.283.188l.5,1.321.012.059c0,.039-.04.074-.118.106a.19.19,0,0,1-.083.022.185.185,0,0,1-.129-.082,3.415,3.415,0,0,0-1-.879,2.44,2.44,0,0,0-1.1-.395,2.84,2.84,0,0,0-.295-.012,1.221,1.221,0,0,0-.684.153.668.668,0,0,0-.224.589v6.417a.635.635,0,0,0,.254.578,1.433,1.433,0,0,0,.772.165h.177c.055,0,.083.052.083.153,0,.118-.028.177-.083.177Z" fill="#fff"/>
        <path id="パス_60" data-name="パス 60" d="M348.732,11816.2a3.992,3.992,0,0,1-1.468-1.517,5.213,5.213,0,0,1,0-4.775,4.006,4.006,0,0,1,1.468-1.517,3.442,3.442,0,0,1,3.615,0,4.021,4.021,0,0,1,1.462,1.517,5.213,5.213,0,0,1,0,4.775,4.007,4.007,0,0,1-1.462,1.517,3.442,3.442,0,0,1-3.615,0Zm3.149-.331a3.191,3.191,0,0,0,1.027-1.368,5.565,5.565,0,0,0,.394-2.211,5.5,5.5,0,0,0-.394-2.194,3.21,3.21,0,0,0-1.027-1.361,2.248,2.248,0,0,0-1.339-.454,2.271,2.271,0,0,0-1.344.454,3.131,3.131,0,0,0-1.026,1.361,5.553,5.553,0,0,0-.389,2.194,5.622,5.622,0,0,0,.389,2.211,3.113,3.113,0,0,0,1.026,1.368,2.279,2.279,0,0,0,1.344.455A2.255,2.255,0,0,0,351.881,11815.871Z" fill="#fff"/>
        <path id="パス_61" data-name="パス 61" d="M362.143,11808.276a2.589,2.589,0,0,1,1.038.783,1.888,1.888,0,0,1,.395,1.191,1.847,1.847,0,0,1-.867,1.764,5.218,5.218,0,0,1-2.212.584q-.153.013-.672.013H359.4a.245.245,0,0,0-.182.063.248.248,0,0,0-.065.184v2.618a.655.655,0,0,0,.236.578,1.391,1.391,0,0,0,.778.165h.189c.055,0,.083.052.083.153,0,.118-.028.177-.083.177h-3.35c-.055,0-.083-.055-.083-.165s.028-.165.083-.165h.189a1.411,1.411,0,0,0,.761-.165.639.639,0,0,0,.253-.578v-6.417a.642.642,0,0,0-.248-.571,1.361,1.361,0,0,0-.766-.171h-.189c-.055,0-.083-.056-.083-.165s.028-.165.083-.165h3.751A3.6,3.6,0,0,1,362.143,11808.276Zm-.207,3.426a2.046,2.046,0,0,0,.543-1.5,1.5,1.5,0,0,0-.785-1.545,3.9,3.9,0,0,0-1.574-.342q-.967,0-.967.742v2.962a.225.225,0,0,0,.247.246h.673A2.575,2.575,0,0,0,361.936,11811.7Z" fill="#fff"/>
      </g>
      <path id="パス_62" data-name="パス 62" d="M350,11795.117l3.882,3.883h1.7l-5.585-5.585-5.585,5.585h1.7Z" transform="translate(649 -29797)" fill="#fff"/>
    </g>
  </g>
</svg>
