<svg xmlns="http://www.w3.org/2000/svg" width="218.75" height="71.153" viewBox="0 0 218.75 71.153">
  <g id="グループ_3691" data-name="グループ 3691" transform="translate(-850.602 -1949.859)">
    <path id="パス_341983" data-name="パス 341983" d="M3.192-2.828H.6v-.9h2.59ZM12.684.182a6.32,6.32,0,0,1-1.2-.133,7.441,7.441,0,0,1-1.2-.329,1.1,1.1,0,0,0-.35-.056.784.784,0,0,0-.385.1A2.854,2.854,0,0,0,9.072.14L8.428-2.59l-.014-.084q0-.07.14-.126l.084-.014a.171.171,0,0,1,.154.112A4.122,4.122,0,0,0,12.544-.308a3.381,3.381,0,0,0,1.715-.455,1.651,1.651,0,0,0,.791-1.561,1.8,1.8,0,0,0-.28-.959,2.042,2.042,0,0,0-.812-.735,6.356,6.356,0,0,0-.84-.364q-.406-.14-.994-.322a9.82,9.82,0,0,1-1.232-.42,3.448,3.448,0,0,1-1.477-1.12,2.447,2.447,0,0,1-.4-1.358A3.046,3.046,0,0,1,9.268-8.75a2.488,2.488,0,0,1,.9-1.078,2.982,2.982,0,0,1,1.757-.462,4.219,4.219,0,0,1,.868.091,7.611,7.611,0,0,1,.952.273,1.427,1.427,0,0,0,.378.07,1.013,1.013,0,0,0,.77-.448l.7,2.38.014.1q0,.084-.112.126a.444.444,0,0,1-.126.028.165.165,0,0,1-.14-.084,5.294,5.294,0,0,0-.6-.756,4.815,4.815,0,0,0-1.162-.9,3.191,3.191,0,0,0-1.624-.42,1.921,1.921,0,0,0-1.316.4,1.845,1.845,0,0,0-.574.812,2.362,2.362,0,0,0-.126.623,1.8,1.8,0,0,0,1.19,1.6,11.624,11.624,0,0,0,1.568.56q.616.182,1.057.336a7.319,7.319,0,0,1,.861.364,2.755,2.755,0,0,1,1.624,2.6,2.433,2.433,0,0,1-.413,1.386,2.785,2.785,0,0,1-1.2.973A4.389,4.389,0,0,1,12.684.182ZM26.642.2a3.928,3.928,0,0,1-2.758-.889,3.069,3.069,0,0,1-.966-2.373V-8.9a.752.752,0,0,0-.287-.679,1.713,1.713,0,0,0-.917-.189H21.5q-.1,0-.1-.2t.1-.2h3.948a.088.088,0,0,1,.091.049.392.392,0,0,1,.021.147q0,.2-.112.2h-.21a1.752,1.752,0,0,0-.924.189.745.745,0,0,0-.294.679q0,2.646.007,3.612t.007,1.246v.364a4.9,4.9,0,0,0,.532,2.366,2.14,2.14,0,0,0,2.072.98A2.488,2.488,0,0,0,28.9-1.26,4.412,4.412,0,0,0,29.5-3.682v-4.97a.994.994,0,0,0-.392-.8,1.268,1.268,0,0,0-.812-.322h-.21q-.1,0-.1-.2t.1-.2h3.4a.088.088,0,0,1,.091.049.392.392,0,0,1,.021.147q0,.2-.112.2h-.21a1.268,1.268,0,0,0-.812.322.994.994,0,0,0-.392.8l-.028,5.376a3.55,3.55,0,0,1-.882,2.534A3.292,3.292,0,0,1,26.642.2ZM41.636.2a4.754,4.754,0,0,1-2.128-.553,4.823,4.823,0,0,1-1.862-1.687,4.885,4.885,0,0,1-.756-2.772,5.892,5.892,0,0,1,.672-2.842A5.251,5.251,0,0,1,39.284-9.6a3.848,3.848,0,0,1,2.142-.693,3.183,3.183,0,0,1,.826.1q.364.1.84.266.182.07.357.126a.987.987,0,0,0,.287.056,1.032,1.032,0,0,0,.455-.105,1.215,1.215,0,0,0,.371-.273l.56,2.268.028.154a.166.166,0,0,1-.028.105.247.247,0,0,1-.084.063l-.084.014a.231.231,0,0,1-.168-.1q-.07-.1-.448-.7a3.081,3.081,0,0,0-1.113-1.022,3.368,3.368,0,0,0-1.7-.42,2.634,2.634,0,0,0-2.149.9A4.577,4.577,0,0,0,38.4-6.9a8.511,8.511,0,0,0-.231,1.778,5.494,5.494,0,0,0,.567,2.632A3.748,3.748,0,0,0,40.145-.959a3.405,3.405,0,0,0,1.7.483,2.865,2.865,0,0,0,1.792-.567A6.568,6.568,0,0,0,45.052-2.6q.07-.084.126-.084a.243.243,0,0,1,.14.07.225.225,0,0,1,.1.154.215.215,0,0,1-.028.084A4.225,4.225,0,0,1,41.636.2ZM53.34,0q-.084,0-.084-.21,0-.182.084-.182h.21a1.653,1.653,0,0,0,.924-.2.766.766,0,0,0,.294-.679V-8.89A.781.781,0,0,0,54.5-9.6a1.5,1.5,0,0,0-.805-.175q-.21,0-.35.014a2.9,2.9,0,0,0-1.309.469,4.039,4.039,0,0,0-1.183,1.043.225.225,0,0,1-.154.1.226.226,0,0,1-.1-.028q-.14-.056-.14-.126l.014-.07.3-.819q.2-.553.371-.973H59.5q.168.42.371.973l.3.819.014.07q0,.07-.14.126a.226.226,0,0,1-.1.028.225.225,0,0,1-.154-.1,4.039,4.039,0,0,0-1.183-1.043A2.9,2.9,0,0,0,57.3-9.758a3.363,3.363,0,0,0-.35-.014,1.452,1.452,0,0,0-.812.182.793.793,0,0,0-.266.7v7.616a.756.756,0,0,0,.3.686,1.706,1.706,0,0,0,.917.2h.21q.1,0,.1.182,0,.21-.1.21ZM73.71-2.478a.165.165,0,0,1,.126.168.984.984,0,0,1-.07.224q-.378.952-.784,2.086h-7.77q-.1,0-.1-.2t.1-.2h.224a1.616,1.616,0,0,0,.917-.2.774.774,0,0,0,.287-.679V-8.89a.756.756,0,0,0-.3-.686,1.674,1.674,0,0,0-.9-.2h-.224q-.1,0-.1-.2t.1-.2h7.336q.238.42.5.882t.371.7a.156.156,0,0,1,.014.07q0,.07-.112.14a.2.2,0,0,1-.112.028.19.19,0,0,1-.14-.056,4.626,4.626,0,0,0-1.5-.987,4.86,4.86,0,0,0-1.9-.371h-.35a6,6,0,0,0-.882.049.863.863,0,0,0-.49.231.807.807,0,0,0-.182.588V-5.5h1.26q.854,0,1.12-.014a1.191,1.191,0,0,0,.917-.392,1.4,1.4,0,0,0,.329-.952q0-.1.182-.1a.392.392,0,0,1,.147.021.077.077,0,0,1,.049.077v3.206q0,.112-.2.112t-.182-.112a1.4,1.4,0,0,0-.329-.952A1.191,1.191,0,0,0,70.14-5q-.266-.014-1.12-.014H67.76v3.738a.711.711,0,0,0,.294.658,1.946,1.946,0,0,0,.91.21q.182.014.63.014.336,0,.49-.014A4.224,4.224,0,0,0,71.568-.77a3.812,3.812,0,0,0,1.015-.679,10.431,10.431,0,0,0,.889-1,.133.133,0,0,1,.112-.056A.444.444,0,0,1,73.71-2.478ZM79.212,0a.077.077,0,0,1-.077-.049A.392.392,0,0,1,79.114-.2q0-.21.1-.21h.224A1.708,1.708,0,0,0,80.36-.6a.76.76,0,0,0,.28-.679V-8.89a.763.763,0,0,0-.294-.686,1.668,1.668,0,0,0-.91-.2h-.224q-.1,0-.1-.2t.1-.2h3.976a.088.088,0,0,1,.091.049.392.392,0,0,1,.021.147q0,.2-.112.2h-.21a1.653,1.653,0,0,0-.924.2.766.766,0,0,0-.294.679v7.616a.7.7,0,0,0,.287.651,2.038,2.038,0,0,0,.931.2l.322.014.56-.014a3.564,3.564,0,0,0,2-.567,5.9,5.9,0,0,0,1.414-1.449.127.127,0,0,1,.112-.07.322.322,0,0,1,.126.042q.112.056.112.14l-.014.07q-.266.728-.406,1.064L86.772,0ZM93.1,0Q93,0,93-.2t.1-.2h.224a1.616,1.616,0,0,0,.917-.2.758.758,0,0,0,.287-.665V-8.89a.763.763,0,0,0-.294-.686,1.668,1.668,0,0,0-.91-.2H93.1q-.1,0-.1-.2t.1-.2h3.962a.088.088,0,0,1,.091.049.392.392,0,0,1,.021.147q0,.2-.112.2h-.21a1.653,1.653,0,0,0-.931.2.788.788,0,0,0-.273.686v7.63a.76.76,0,0,0,.28.679,1.708,1.708,0,0,0,.924.189h.21a.088.088,0,0,1,.091.049.392.392,0,0,1,.021.147q0,.2-.112.2Zm18.13-2.478a.165.165,0,0,1,.126.168.984.984,0,0,1-.07.224q-.378.952-.784,2.086h-7.77q-.1,0-.1-.2t.1-.2h.224a1.616,1.616,0,0,0,.917-.2.774.774,0,0,0,.287-.679V-8.89a.756.756,0,0,0-.3-.686,1.674,1.674,0,0,0-.9-.2h-.224q-.1,0-.1-.2t.1-.2h7.336q.238.42.5.882t.371.7a.156.156,0,0,1,.014.07q0,.07-.112.14a.2.2,0,0,1-.112.028.19.19,0,0,1-.14-.056,4.626,4.626,0,0,0-1.5-.987,4.86,4.86,0,0,0-1.9-.371h-.35a6,6,0,0,0-.882.049.863.863,0,0,0-.49.231.807.807,0,0,0-.182.588V-5.5h1.26q.854,0,1.12-.014a1.191,1.191,0,0,0,.917-.392,1.4,1.4,0,0,0,.329-.952q0-.1.182-.1a.392.392,0,0,1,.147.021.077.077,0,0,1,.049.077v3.206q0,.112-.2.112t-.182-.112a1.4,1.4,0,0,0-.329-.952A1.191,1.191,0,0,0,107.66-5q-.266-.014-1.12-.014h-1.26v3.738a.711.711,0,0,0,.294.658,1.946,1.946,0,0,0,.91.21q.182.014.63.014.336,0,.49-.014a4.224,4.224,0,0,0,1.484-.364,3.812,3.812,0,0,0,1.015-.679,10.431,10.431,0,0,0,.889-1,.133.133,0,0,1,.112-.056A.444.444,0,0,1,111.23-2.478Zm14.9,2.086q.1,0,.1.182,0,.21-.1.21H123.7q-.56-1.008-1.456-2.541T120.778-4.9q-.392.028-.588.028h-.91v3.6a.756.756,0,0,0,.3.686,1.674,1.674,0,0,0,.9.2h.224q.1,0,.1.182,0,.21-.1.21h-3.976q-.1,0-.1-.2t.1-.2h.224a1.663,1.663,0,0,0,.917-.2.771.771,0,0,0,.287-.686V-8.89a.749.749,0,0,0-.308-.686,1.712,1.712,0,0,0-.91-.2h-.224q-.1,0-.1-.2t.1-.2l3.22-.014h1.274a4.492,4.492,0,0,1,1.659.329,2.929,2.929,0,0,1,1.225.91,2.185,2.185,0,0,1,.462,1.379,1.937,1.937,0,0,1-.721,1.547,4.769,4.769,0,0,1-1.869.917q.392.518,1.5,2.31.91,1.442,1.05,1.652a1.785,1.785,0,0,0,.609.539A2.092,2.092,0,0,0,126.126-.392ZM119.7-5.264a4.359,4.359,0,0,0,2.786-.672,2.137,2.137,0,0,0,.784-1.694,1.756,1.756,0,0,0-.819-1.638,3.82,3.82,0,0,0-1.995-.49,1.921,1.921,0,0,0-.854.161.712.712,0,0,0-.322.707v3.626ZM142.9.182a6.32,6.32,0,0,1-1.2-.133,7.44,7.44,0,0,1-1.2-.329,1.1,1.1,0,0,0-.35-.056.784.784,0,0,0-.385.1,2.854,2.854,0,0,0-.483.371l-.644-2.73-.014-.084q0-.07.14-.126l.084-.014a.171.171,0,0,1,.154.112,4.122,4.122,0,0,0,3.752,2.394,3.381,3.381,0,0,0,1.715-.455,1.651,1.651,0,0,0,.791-1.561,1.8,1.8,0,0,0-.28-.959,2.042,2.042,0,0,0-.812-.735,6.357,6.357,0,0,0-.84-.364q-.406-.14-.994-.322a9.821,9.821,0,0,1-1.232-.42,3.448,3.448,0,0,1-1.477-1.12,2.447,2.447,0,0,1-.4-1.358,3.046,3.046,0,0,1,.252-1.148,2.488,2.488,0,0,1,.9-1.078,2.982,2.982,0,0,1,1.757-.462,4.219,4.219,0,0,1,.868.091,7.61,7.61,0,0,1,.952.273,1.427,1.427,0,0,0,.378.07,1.013,1.013,0,0,0,.77-.448l.7,2.38.014.1q0,.084-.112.126a.444.444,0,0,1-.126.028.165.165,0,0,1-.14-.084,5.294,5.294,0,0,0-.6-.756,4.815,4.815,0,0,0-1.162-.9,3.191,3.191,0,0,0-1.624-.42,1.921,1.921,0,0,0-1.316.4,1.845,1.845,0,0,0-.574.812,2.362,2.362,0,0,0-.126.623,1.8,1.8,0,0,0,1.19,1.6,11.624,11.624,0,0,0,1.568.56q.616.182,1.057.336a7.319,7.319,0,0,1,.861.364,2.755,2.755,0,0,1,1.624,2.6,2.433,2.433,0,0,1-.413,1.386,2.785,2.785,0,0,1-1.2.973A4.389,4.389,0,0,1,142.9.182Zm17.43-2.66a.165.165,0,0,1,.126.168.984.984,0,0,1-.07.224q-.378.952-.784,2.086h-7.77q-.1,0-.1-.2t.1-.2h.224a1.616,1.616,0,0,0,.917-.2.774.774,0,0,0,.287-.679V-8.89a.756.756,0,0,0-.3-.686,1.674,1.674,0,0,0-.9-.2h-.224q-.1,0-.1-.2t.1-.2h7.336q.238.42.5.882t.371.7a.156.156,0,0,1,.014.07q0,.07-.112.14a.2.2,0,0,1-.112.028.19.19,0,0,1-.14-.056,4.626,4.626,0,0,0-1.5-.987,4.86,4.86,0,0,0-1.9-.371h-.35a6,6,0,0,0-.882.049.863.863,0,0,0-.49.231.807.807,0,0,0-.182.588V-5.5h1.26q.854,0,1.12-.014a1.191,1.191,0,0,0,.917-.392A1.4,1.4,0,0,0,158-6.86q0-.1.182-.1a.392.392,0,0,1,.147.021.077.077,0,0,1,.049.077v3.206q0,.112-.2.112T158-3.654a1.4,1.4,0,0,0-.329-.952A1.191,1.191,0,0,0,156.758-5q-.266-.014-1.12-.014h-1.26v3.738a.711.711,0,0,0,.294.658,1.946,1.946,0,0,0,.91.21q.182.014.63.014.336,0,.49-.014a4.224,4.224,0,0,0,1.484-.364,3.813,3.813,0,0,0,1.015-.679,10.431,10.431,0,0,0,.889-1,.133.133,0,0,1,.112-.056A.444.444,0,0,1,160.328-2.478Zm14.9,2.086q.1,0,.1.182,0,.21-.1.21H172.8q-.56-1.008-1.456-2.541T169.876-4.9q-.392.028-.588.028h-.91v3.6a.756.756,0,0,0,.3.686,1.674,1.674,0,0,0,.9.2h.224q.1,0,.1.182,0,.21-.1.21H165.83q-.1,0-.1-.2t.1-.2h.224a1.663,1.663,0,0,0,.917-.2.771.771,0,0,0,.287-.686V-8.89a.749.749,0,0,0-.308-.686,1.712,1.712,0,0,0-.91-.2h-.224q-.1,0-.1-.2t.1-.2l3.22-.014h1.274a4.492,4.492,0,0,1,1.659.329,2.929,2.929,0,0,1,1.225.91,2.185,2.185,0,0,1,.462,1.379,1.937,1.937,0,0,1-.721,1.547,4.769,4.769,0,0,1-1.869.917q.392.518,1.5,2.31.91,1.442,1.05,1.652a1.785,1.785,0,0,0,.609.539A2.092,2.092,0,0,0,175.224-.392ZM168.8-5.264a4.359,4.359,0,0,0,2.786-.672,2.137,2.137,0,0,0,.784-1.694,1.756,1.756,0,0,0-.819-1.638,3.82,3.82,0,0,0-2-.49,1.921,1.921,0,0,0-.854.161.712.712,0,0,0-.322.707v3.626ZM180.362,0q-.1,0-.1-.2t.1-.2h.224a1.616,1.616,0,0,0,.917-.2.758.758,0,0,0,.287-.665V-8.89a.763.763,0,0,0-.294-.686,1.668,1.668,0,0,0-.91-.2h-.224q-.1,0-.1-.2t.1-.2h3.962a.088.088,0,0,1,.091.049.392.392,0,0,1,.021.147q0,.2-.112.2h-.21a1.653,1.653,0,0,0-.931.2.788.788,0,0,0-.273.686v7.63a.76.76,0,0,0,.28.679,1.708,1.708,0,0,0,.924.189h.21a.088.088,0,0,1,.091.049.392.392,0,0,1,.021.147q0,.2-.112.2Zm18.13-2.478a.165.165,0,0,1,.126.168.984.984,0,0,1-.07.224q-.378.952-.784,2.086h-7.77q-.1,0-.1-.2t.1-.2h.224a1.616,1.616,0,0,0,.917-.2.774.774,0,0,0,.287-.679V-8.89a.756.756,0,0,0-.3-.686,1.674,1.674,0,0,0-.9-.2h-.224q-.1,0-.1-.2t.1-.2h7.336q.238.42.5.882t.371.7a.156.156,0,0,1,.014.07q0,.07-.112.14a.2.2,0,0,1-.112.028.19.19,0,0,1-.14-.056,4.626,4.626,0,0,0-1.5-.987,4.86,4.86,0,0,0-1.9-.371h-.35a6,6,0,0,0-.882.049.863.863,0,0,0-.49.231.807.807,0,0,0-.182.588V-5.5h1.26q.854,0,1.12-.014a1.191,1.191,0,0,0,.917-.392,1.4,1.4,0,0,0,.329-.952q0-.1.182-.1a.392.392,0,0,1,.147.021.077.077,0,0,1,.049.077v3.206q0,.112-.2.112t-.182-.112a1.4,1.4,0,0,0-.329-.952A1.191,1.191,0,0,0,194.922-5q-.266-.014-1.12-.014h-1.26v3.738a.711.711,0,0,0,.294.658,1.946,1.946,0,0,0,.91.21q.182.014.63.014.336,0,.49-.014A4.224,4.224,0,0,0,196.35-.77a3.813,3.813,0,0,0,1.015-.679,10.431,10.431,0,0,0,.889-1,.133.133,0,0,1,.112-.056A.444.444,0,0,1,198.492-2.478Zm9.6,2.66a6.32,6.32,0,0,1-1.2-.133,7.44,7.44,0,0,1-1.2-.329,1.1,1.1,0,0,0-.35-.056.784.784,0,0,0-.385.1,2.854,2.854,0,0,0-.483.371l-.644-2.73-.014-.084q0-.07.14-.126l.084-.014a.171.171,0,0,1,.154.112,4.122,4.122,0,0,0,3.752,2.394,3.381,3.381,0,0,0,1.715-.455,1.651,1.651,0,0,0,.791-1.561,1.8,1.8,0,0,0-.28-.959,2.042,2.042,0,0,0-.812-.735,6.357,6.357,0,0,0-.84-.364q-.406-.14-.994-.322a9.821,9.821,0,0,1-1.232-.42,3.448,3.448,0,0,1-1.477-1.12,2.447,2.447,0,0,1-.4-1.358,3.046,3.046,0,0,1,.252-1.148,2.488,2.488,0,0,1,.9-1.078,2.982,2.982,0,0,1,1.757-.462,4.219,4.219,0,0,1,.868.091,7.61,7.61,0,0,1,.952.273,1.427,1.427,0,0,0,.378.07,1.013,1.013,0,0,0,.77-.448l.7,2.38.014.1q0,.084-.112.126a.444.444,0,0,1-.126.028.165.165,0,0,1-.14-.084,5.294,5.294,0,0,0-.6-.756,4.815,4.815,0,0,0-1.162-.9,3.191,3.191,0,0,0-1.624-.42,1.921,1.921,0,0,0-1.316.4,1.845,1.845,0,0,0-.574.812,2.362,2.362,0,0,0-.126.623,1.8,1.8,0,0,0,1.19,1.6,11.624,11.624,0,0,0,1.568.56q.616.182,1.057.336a7.319,7.319,0,0,1,.861.364,2.755,2.755,0,0,1,1.624,2.6,2.433,2.433,0,0,1-.413,1.386,2.785,2.785,0,0,1-1.2.973A4.389,4.389,0,0,1,208.1.182Zm11.256-3.01h-2.59v-.9h2.59Z" transform="translate(850 2020.816)" fill="#fff"/>
    <text id="LINE_UP" data-name="LINE UP" transform="translate(856 1985.859)" fill="#fff" font-size="40" font-family="Copperplate-Bol, Copperplate" letter-spacing="0.12em"><tspan x="0" y="0">LINE UP</tspan></text>
  </g>
</svg>
