<svg xmlns="http://www.w3.org/2000/svg" width="143.668" height="37.677" viewBox="0 0 143.668 37.677">
  <g id="グループ_3692" data-name="グループ 3692" transform="translate(-116.68 -1709.954)">
    <path id="パス_341985" data-name="パス 341985" d="M2.166-1.919H.409v-.608H2.166ZM8.227.124a4.289,4.289,0,0,1-.812-.09A5.049,5.049,0,0,1,6.6-.19a.746.746,0,0,0-.238-.038A.532.532,0,0,0,6.1-.157,1.937,1.937,0,0,0,5.776.1L5.339-1.758l-.01-.057q0-.047.1-.085l.057-.01a.116.116,0,0,1,.1.076A2.8,2.8,0,0,0,8.132-.209,2.294,2.294,0,0,0,9.3-.518a1.12,1.12,0,0,0,.537-1.059,1.222,1.222,0,0,0-.19-.651,1.386,1.386,0,0,0-.551-.5,4.313,4.313,0,0,0-.57-.247q-.275-.095-.674-.218a6.664,6.664,0,0,1-.836-.285,2.34,2.34,0,0,1-1-.76,1.66,1.66,0,0,1-.271-.922,2.067,2.067,0,0,1,.171-.779,1.688,1.688,0,0,1,.613-.732,2.023,2.023,0,0,1,1.192-.313,2.863,2.863,0,0,1,.589.062,5.165,5.165,0,0,1,.646.185.968.968,0,0,0,.257.047.687.687,0,0,0,.523-.3L10.2-5.377l.009.067q0,.057-.076.086a.3.3,0,0,1-.085.019.112.112,0,0,1-.1-.057,3.592,3.592,0,0,0-.408-.513,3.267,3.267,0,0,0-.789-.608,2.165,2.165,0,0,0-1.1-.285,1.3,1.3,0,0,0-.893.271,1.252,1.252,0,0,0-.39.551,1.6,1.6,0,0,0-.085.423A1.223,1.223,0,0,0,7.1-4.342a7.888,7.888,0,0,0,1.064.38q.418.123.717.228a4.966,4.966,0,0,1,.584.247,1.87,1.87,0,0,1,1.1,1.767,1.651,1.651,0,0,1-.28.941,1.89,1.89,0,0,1-.812.66A2.978,2.978,0,0,1,8.227.124Zm9.092.009a2.665,2.665,0,0,1-1.872-.6,2.083,2.083,0,0,1-.656-1.61V-6.042A.51.51,0,0,0,14.6-6.5a1.162,1.162,0,0,0-.622-.128h-.143q-.067,0-.066-.133t.066-.133h2.679a.06.06,0,0,1,.062.033.266.266,0,0,1,.014.1q0,.133-.076.133h-.142a1.189,1.189,0,0,0-.627.128.505.505,0,0,0-.2.461q0,1.8,0,2.451t0,.845V-2.5a3.322,3.322,0,0,0,.361,1.606,1.452,1.452,0,0,0,1.406.665,1.689,1.689,0,0,0,1.534-.627,2.994,2.994,0,0,0,.4-1.644V-5.871a.674.674,0,0,0-.266-.541.86.86,0,0,0-.551-.219H18.3q-.067,0-.067-.133T18.3-6.9h2.308a.06.06,0,0,1,.062.033.266.266,0,0,1,.014.1q0,.133-.076.133h-.142a.86.86,0,0,0-.551.219.674.674,0,0,0-.266.541l-.019,3.648a2.409,2.409,0,0,1-.6,1.72A2.234,2.234,0,0,1,17.319.133Zm9.794,0a3.226,3.226,0,0,1-1.444-.375,3.273,3.273,0,0,1-1.264-1.145,3.315,3.315,0,0,1-.513-1.881A4,4,0,0,1,24.348-5.2a3.563,3.563,0,0,1,1.169-1.316,2.611,2.611,0,0,1,1.453-.47,2.16,2.16,0,0,1,.561.066q.247.067.57.181.123.047.242.085a.67.67,0,0,0,.195.038.7.7,0,0,0,.309-.071.825.825,0,0,0,.252-.185l.38,1.539.019.1a.113.113,0,0,1-.019.071.168.168,0,0,1-.057.043l-.057.01a.157.157,0,0,1-.114-.067q-.048-.066-.3-.475a2.091,2.091,0,0,0-.755-.694,2.286,2.286,0,0,0-1.154-.285,1.787,1.787,0,0,0-1.458.613,3.106,3.106,0,0,0-.665,1.325,5.775,5.775,0,0,0-.157,1.207,3.728,3.728,0,0,0,.385,1.786A2.543,2.543,0,0,0,26.1-.651a2.311,2.311,0,0,0,1.154.328,1.944,1.944,0,0,0,1.216-.385,4.457,4.457,0,0,0,.959-1.059q.048-.057.085-.057a.165.165,0,0,1,.1.047.152.152,0,0,1,.066.1.146.146,0,0,1-.019.057A2.867,2.867,0,0,1,27.113.133ZM34.675,0q-.057,0-.057-.143,0-.123.057-.123h.143A1.122,1.122,0,0,0,35.444-.4a.52.52,0,0,0,.2-.461V-6.033a.53.53,0,0,0-.185-.48,1.021,1.021,0,0,0-.546-.119q-.142,0-.237.01a1.969,1.969,0,0,0-.888.318,2.741,2.741,0,0,0-.8.708.152.152,0,0,1-.1.067.153.153,0,0,1-.067-.019q-.1-.038-.1-.086l.01-.048.2-.556q.138-.375.252-.66h5.672q.114.285.252.66l.2.556.009.048q0,.048-.095.086a.153.153,0,0,1-.067.019.152.152,0,0,1-.1-.067,2.741,2.741,0,0,0-.8-.708,1.969,1.969,0,0,0-.888-.318,2.282,2.282,0,0,0-.238-.01.985.985,0,0,0-.551.123.538.538,0,0,0-.181.475V-.865a.513.513,0,0,0,.2.466,1.158,1.158,0,0,0,.622.133h.143q.066,0,.066.123,0,.143-.066.143ZM48.118-1.681a.112.112,0,0,1,.086.114.668.668,0,0,1-.048.152Q47.9-.769,47.624,0H42.351q-.067,0-.067-.133t.067-.133H42.5A1.1,1.1,0,0,0,43.125-.4a.525.525,0,0,0,.195-.461V-6.033a.513.513,0,0,0-.2-.465,1.136,1.136,0,0,0-.613-.133h-.152q-.067,0-.067-.133t.067-.133h4.978q.161.285.337.6t.252.475a.106.106,0,0,1,.01.047q0,.048-.076.095a.135.135,0,0,1-.076.019.129.129,0,0,1-.1-.038,3.139,3.139,0,0,0-1.016-.67,3.3,3.3,0,0,0-1.292-.252h-.237a4.071,4.071,0,0,0-.6.033.585.585,0,0,0-.333.157.547.547,0,0,0-.124.4v2.3h.855q.58,0,.76-.01a.808.808,0,0,0,.622-.266.949.949,0,0,0,.223-.646q0-.066.124-.066a.266.266,0,0,1,.1.014.052.052,0,0,1,.033.052V-2.48q0,.076-.133.076t-.124-.076a.949.949,0,0,0-.223-.646.808.808,0,0,0-.622-.266q-.181-.009-.76-.009H44.08V-.865a.483.483,0,0,0,.2.447,1.32,1.32,0,0,0,.618.143q.123.01.427.009.228,0,.333-.009a2.866,2.866,0,0,0,1.007-.247,2.587,2.587,0,0,0,.689-.461,7.078,7.078,0,0,0,.6-.679.09.09,0,0,1,.076-.038A.3.3,0,0,1,48.118-1.681ZM51.471,0a.052.052,0,0,1-.052-.033.266.266,0,0,1-.014-.1q0-.142.067-.142h.152A1.159,1.159,0,0,0,52.25-.4a.516.516,0,0,0,.19-.461V-6.033a.518.518,0,0,0-.2-.465,1.132,1.132,0,0,0-.618-.133h-.152q-.067,0-.067-.133t.067-.133h2.7a.06.06,0,0,1,.062.033.266.266,0,0,1,.014.1q0,.133-.076.133h-.142a1.122,1.122,0,0,0-.627.138.52.52,0,0,0-.2.461V-.865a.475.475,0,0,0,.195.442,1.383,1.383,0,0,0,.632.138l.218.01.38-.01A2.419,2.419,0,0,0,55.984-.67a4,4,0,0,0,.959-.983.086.086,0,0,1,.076-.047.219.219,0,0,1,.085.028q.076.038.076.1l-.009.048q-.181.494-.276.722L56.6,0Zm9.044,0q-.067,0-.067-.133t.067-.133h.152A1.1,1.1,0,0,0,61.289-.4a.514.514,0,0,0,.195-.451V-6.033a.518.518,0,0,0-.2-.465,1.132,1.132,0,0,0-.618-.133h-.152q-.067,0-.067-.133t.067-.133H63.2a.06.06,0,0,1,.062.033.266.266,0,0,1,.014.1q0,.133-.076.133h-.143a1.122,1.122,0,0,0-.632.133.535.535,0,0,0-.185.465V-.855a.516.516,0,0,0,.19.461,1.159,1.159,0,0,0,.627.128H63.2a.06.06,0,0,1,.062.033.266.266,0,0,1,.014.1Q63.279,0,63.2,0ZM72.438-1.681a.112.112,0,0,1,.086.114.667.667,0,0,1-.048.152Q72.219-.769,71.944,0H66.671Q66.6,0,66.6-.133t.066-.133h.152A1.1,1.1,0,0,0,67.445-.4a.525.525,0,0,0,.195-.461V-6.033a.513.513,0,0,0-.2-.465,1.136,1.136,0,0,0-.613-.133h-.152q-.067,0-.066-.133t.066-.133h4.978q.161.285.337.6t.252.475a.106.106,0,0,1,.009.047q0,.048-.076.095a.135.135,0,0,1-.076.019A.129.129,0,0,1,72-5.7a3.139,3.139,0,0,0-1.017-.67,3.3,3.3,0,0,0-1.292-.252h-.238a4.071,4.071,0,0,0-.6.033.585.585,0,0,0-.333.157.547.547,0,0,0-.123.4v2.3h.855q.58,0,.76-.01a.808.808,0,0,0,.622-.266.949.949,0,0,0,.223-.646q0-.066.123-.066a.266.266,0,0,1,.1.014.052.052,0,0,1,.033.052V-2.48q0,.076-.133.076t-.123-.076a.949.949,0,0,0-.223-.646.808.808,0,0,0-.622-.266q-.18-.009-.76-.009H68.4V-.865a.483.483,0,0,0,.2.447,1.32,1.32,0,0,0,.618.143q.123.01.427.009.228,0,.332-.009a2.866,2.866,0,0,0,1.007-.247,2.587,2.587,0,0,0,.689-.461,7.079,7.079,0,0,0,.6-.679.09.09,0,0,1,.076-.038A.3.3,0,0,1,72.438-1.681ZM82.166-.266q.067,0,.066.123,0,.143-.066.143H80.522q-.38-.684-.988-1.724t-1-1.6q-.266.019-.4.019H77.52V-.865a.513.513,0,0,0,.2.466,1.136,1.136,0,0,0,.613.133h.152q.067,0,.066.123,0,.143-.066.143h-2.7q-.066,0-.066-.133t.066-.133h.152A1.128,1.128,0,0,0,76.565-.4a.523.523,0,0,0,.195-.466V-6.033a.508.508,0,0,0-.209-.465,1.162,1.162,0,0,0-.618-.133h-.152q-.067,0-.066-.133t.066-.133l2.185-.01h.864a3.048,3.048,0,0,1,1.126.223,1.988,1.988,0,0,1,.831.618,1.483,1.483,0,0,1,.313.936,1.314,1.314,0,0,1-.489,1.05,3.236,3.236,0,0,1-1.268.622q.266.351,1.017,1.567.618.979.713,1.121a1.211,1.211,0,0,0,.413.366A1.42,1.42,0,0,0,82.166-.266ZM77.805-3.572A2.958,2.958,0,0,0,79.7-4.028a1.45,1.45,0,0,0,.532-1.149,1.192,1.192,0,0,0-.556-1.112,2.592,2.592,0,0,0-1.354-.332,1.3,1.3,0,0,0-.579.109.483.483,0,0,0-.218.48v2.461ZM92.787.124a4.289,4.289,0,0,1-.812-.09,5.049,5.049,0,0,1-.812-.223.746.746,0,0,0-.238-.038.532.532,0,0,0-.261.071A1.937,1.937,0,0,0,90.336.1L89.9-1.758l-.009-.057q0-.047.1-.085l.057-.01a.116.116,0,0,1,.1.076A2.8,2.8,0,0,0,92.692-.209a2.294,2.294,0,0,0,1.164-.309,1.12,1.12,0,0,0,.537-1.059,1.222,1.222,0,0,0-.19-.651,1.386,1.386,0,0,0-.551-.5,4.314,4.314,0,0,0-.57-.247q-.275-.095-.674-.218a6.664,6.664,0,0,1-.836-.285,2.34,2.34,0,0,1-1-.76,1.66,1.66,0,0,1-.271-.922,2.067,2.067,0,0,1,.171-.779,1.688,1.688,0,0,1,.613-.732,2.023,2.023,0,0,1,1.192-.313,2.863,2.863,0,0,1,.589.062,5.164,5.164,0,0,1,.646.185.968.968,0,0,0,.257.047.687.687,0,0,0,.522-.3l.475,1.615.009.067q0,.057-.076.086a.3.3,0,0,1-.085.019.112.112,0,0,1-.1-.057,3.592,3.592,0,0,0-.409-.513,3.267,3.267,0,0,0-.788-.608,2.165,2.165,0,0,0-1.1-.285,1.3,1.3,0,0,0-.893.271,1.252,1.252,0,0,0-.39.551,1.6,1.6,0,0,0-.085.423,1.223,1.223,0,0,0,.807,1.083,7.888,7.888,0,0,0,1.064.38q.418.123.717.228a4.966,4.966,0,0,1,.584.247,1.87,1.87,0,0,1,1.1,1.767,1.651,1.651,0,0,1-.28.941,1.89,1.89,0,0,1-.812.66A2.978,2.978,0,0,1,92.787.124Zm11.448-1.8a.112.112,0,0,1,.086.114.667.667,0,0,1-.048.152q-.256.646-.532,1.416H98.468Q98.4,0,98.4-.133t.066-.133h.152A1.1,1.1,0,0,0,99.242-.4a.525.525,0,0,0,.195-.461V-6.033a.513.513,0,0,0-.2-.465,1.136,1.136,0,0,0-.613-.133h-.152q-.067,0-.066-.133t.066-.133h4.978q.161.285.337.6t.252.475a.106.106,0,0,1,.009.047q0,.048-.076.095a.135.135,0,0,1-.076.019.129.129,0,0,1-.1-.038,3.139,3.139,0,0,0-1.017-.67,3.3,3.3,0,0,0-1.292-.252h-.238a4.071,4.071,0,0,0-.6.033.585.585,0,0,0-.333.157.547.547,0,0,0-.123.4v2.3h.855q.58,0,.76-.01a.808.808,0,0,0,.622-.266.949.949,0,0,0,.223-.646q0-.066.123-.066a.266.266,0,0,1,.1.014.052.052,0,0,1,.033.052V-2.48q0,.076-.133.076t-.123-.076a.949.949,0,0,0-.223-.646.808.808,0,0,0-.622-.266q-.18-.009-.76-.009H100.2V-.865a.483.483,0,0,0,.2.447,1.32,1.32,0,0,0,.618.143q.123.01.427.009.228,0,.332-.009a2.866,2.866,0,0,0,1.007-.247,2.587,2.587,0,0,0,.689-.461,7.079,7.079,0,0,0,.6-.679.09.09,0,0,1,.076-.038A.3.3,0,0,1,104.234-1.681Zm9.728,1.415q.067,0,.066.123,0,.143-.066.143h-1.644q-.38-.684-.988-1.724t-1-1.6q-.266.019-.4.019h-.618V-.865a.513.513,0,0,0,.2.466,1.136,1.136,0,0,0,.613.133h.152q.067,0,.066.123,0,.143-.066.143h-2.7q-.066,0-.066-.133t.066-.133h.152a1.128,1.128,0,0,0,.622-.133.523.523,0,0,0,.195-.466V-6.033a.508.508,0,0,0-.209-.465,1.162,1.162,0,0,0-.618-.133h-.152q-.067,0-.066-.133t.066-.133l2.185-.01h.864a3.048,3.048,0,0,1,1.126.223,1.988,1.988,0,0,1,.831.618,1.483,1.483,0,0,1,.313.936,1.314,1.314,0,0,1-.489,1.05,3.236,3.236,0,0,1-1.268.622q.266.351,1.017,1.567.618.979.713,1.121a1.211,1.211,0,0,0,.413.366A1.42,1.42,0,0,0,113.962-.266ZM109.6-3.572a2.958,2.958,0,0,0,1.891-.456,1.45,1.45,0,0,0,.532-1.149,1.192,1.192,0,0,0-.556-1.112,2.592,2.592,0,0,0-1.354-.332,1.3,1.3,0,0,0-.579.109.483.483,0,0,0-.218.48v2.461ZM117.069,0Q117,0,117-.133t.066-.133h.152a1.1,1.1,0,0,0,.622-.138.514.514,0,0,0,.195-.451V-6.033a.518.518,0,0,0-.2-.465,1.132,1.132,0,0,0-.618-.133h-.152q-.067,0-.066-.133t.066-.133h2.689a.06.06,0,0,1,.062.033.266.266,0,0,1,.014.1q0,.133-.076.133h-.143a1.122,1.122,0,0,0-.632.133.535.535,0,0,0-.185.465V-.855a.516.516,0,0,0,.19.461,1.159,1.159,0,0,0,.627.128h.143a.06.06,0,0,1,.062.033.266.266,0,0,1,.014.1q0,.133-.076.133Zm11.923-1.681a.112.112,0,0,1,.085.114.668.668,0,0,1-.048.152Q128.772-.769,128.5,0h-5.272q-.066,0-.066-.133t.066-.133h.152A1.1,1.1,0,0,0,124-.4a.525.525,0,0,0,.195-.461V-6.033a.513.513,0,0,0-.2-.465,1.136,1.136,0,0,0-.613-.133h-.152q-.067,0-.066-.133t.066-.133H128.2q.161.285.337.6t.252.475a.106.106,0,0,1,.009.047q0,.048-.076.095a.135.135,0,0,1-.076.019.129.129,0,0,1-.1-.038,3.139,3.139,0,0,0-1.017-.67,3.3,3.3,0,0,0-1.292-.252h-.238a4.071,4.071,0,0,0-.6.033.585.585,0,0,0-.333.157.547.547,0,0,0-.123.4v2.3h.855q.58,0,.76-.01a.808.808,0,0,0,.622-.266.949.949,0,0,0,.223-.646q0-.066.123-.066a.266.266,0,0,1,.1.014.052.052,0,0,1,.033.052V-2.48q0,.076-.133.076t-.123-.076a.949.949,0,0,0-.223-.646.808.808,0,0,0-.622-.266q-.18-.009-.76-.009h-.855V-.865a.483.483,0,0,0,.2.447,1.32,1.32,0,0,0,.618.143q.123.01.427.009.228,0,.332-.009a2.866,2.866,0,0,0,1.007-.247,2.587,2.587,0,0,0,.689-.461,7.078,7.078,0,0,0,.6-.679.09.09,0,0,1,.076-.038A.3.3,0,0,1,128.991-1.681Zm6.137,1.8a4.289,4.289,0,0,1-.812-.09A5.049,5.049,0,0,1,133.5-.19a.746.746,0,0,0-.238-.038A.532.532,0,0,0,133-.157a1.938,1.938,0,0,0-.328.252l-.437-1.853-.009-.057q0-.047.1-.085l.057-.01a.116.116,0,0,1,.1.076,2.8,2.8,0,0,0,2.546,1.625A2.294,2.294,0,0,0,136.2-.518a1.12,1.12,0,0,0,.537-1.059,1.222,1.222,0,0,0-.19-.651,1.386,1.386,0,0,0-.551-.5,4.313,4.313,0,0,0-.57-.247q-.276-.095-.674-.218a6.664,6.664,0,0,1-.836-.285,2.34,2.34,0,0,1-1-.76,1.66,1.66,0,0,1-.271-.922,2.067,2.067,0,0,1,.171-.779,1.688,1.688,0,0,1,.613-.732,2.023,2.023,0,0,1,1.192-.313,2.863,2.863,0,0,1,.589.062,5.164,5.164,0,0,1,.646.185.968.968,0,0,0,.257.047.687.687,0,0,0,.523-.3l.475,1.615.01.067q0,.057-.076.086a.3.3,0,0,1-.085.019.112.112,0,0,1-.1-.057,3.593,3.593,0,0,0-.409-.513,3.267,3.267,0,0,0-.788-.608,2.165,2.165,0,0,0-1.1-.285,1.3,1.3,0,0,0-.893.271,1.252,1.252,0,0,0-.389.551,1.6,1.6,0,0,0-.086.423A1.223,1.223,0,0,0,134-4.342a7.887,7.887,0,0,0,1.064.38q.418.123.717.228a4.967,4.967,0,0,1,.584.247,1.87,1.87,0,0,1,1.1,1.767,1.651,1.651,0,0,1-.28.941,1.89,1.89,0,0,1-.812.66A2.978,2.978,0,0,1,135.128.124Zm7.258-2.043h-1.758v-.608h1.758Z" transform="translate(117 1747.498)" fill="#fff"/>
    <path id="パス_341984" data-name="パス 341984" d="M6.608-3.08V-17.248c.056-.616.224-.812.868-.98v-.448H1.68v.448c.644.168.812.364.868.98v15.82c-.056.616-.224.812-.868.98V0H18.116c.616.056.812.224.98.868h.448V-3.948H19.1c-.168.644-.392.84-.98.868ZM30.66-.448c-.644-.168-.84-.364-.868-.98v-15.82c.056-.616.224-.812.868-.98v-.448h-5.8v.448c.644.168.812.364.868.98v15.82c-.056.616-.224.812-.868.98V0h5.8ZM42-12.8,52.472-1.988c.56.56.672.728.672.952,0,.336-.168.5-.56.588V0h5.852V-.448c-.644-.168-.84-.364-.868-.98v-15.82c.028-.616.224-.812.868-.98v-.448h-5.46v.448c.644.168.812.364.868.98V-6.16L43.54-16.884c-.28-.308-.392-.476-.392-.728,0-.308.2-.532.588-.616v-.448H37.408v.448c.644.168.812.364.868.98v15.82c-.056.616-.224.812-.868.98V0h5.46V-.448c-.644-.168-.84-.364-.868-.98Zm28.084,4.62h7.588c.616.056.812.224.98.868H79.1V-12.04h-.448c-.168.672-.364.868-.98.9H70.084V-15.6h11.7c.616.056.812.224.98.868h.448v-4.816h-.448c-.168.644-.364.812-.98.868H65.156v.448c.644.168.812.364.868.98v15.82c-.056.616-.224.812-.868.98V0H82.124c.616.056.812.224.98.868h.42V-3.948H83.1c-.168.644-.392.812-.98.868H70.084Zm49.924-10.5H114.52v.448c.644.168.812.364.868.98v9.324c0,2.156-.2,3-.84,3.7-.84.9-2.436,1.4-4.48,1.4s-3.668-.5-4.508-1.4c-.644-.7-.84-1.54-.84-3.7v-9.324c.056-.616.224-.812.9-.98v-.448H99.792v.448c.644.168.812.364.868.98V-6.776c0,2.884.756,4.648,2.436,5.656,1.568.98,3.836,1.456,6.8,1.456a13,13,0,0,0,6.8-1.456c1.68-1.008,2.436-2.772,2.436-5.656V-17.248c.056-.616.224-.812.868-.98ZM131.292-7.56h6.692c2.688,0,4.144-.336,5.348-1.232a5.336,5.336,0,0,0,2.016-4.34,5.414,5.414,0,0,0-2.016-4.34c-1.2-.9-2.632-1.2-5.348-1.2h-11.62v.448c.644.168.812.364.868.98v15.82c-.056.616-.224.784-.868.98V0h5.8V-.448c-.644-.168-.812-.364-.868-.98Zm0-3.08V-15.6h6.216a5.068,5.068,0,0,1,2.6.392,2.363,2.363,0,0,1,1.064,2.072,2.379,2.379,0,0,1-1.064,2.1,5.134,5.134,0,0,1-2.6.392Z" transform="translate(115 1729.498)" fill="#fff"/>
  </g>
</svg>
